<?xml version="1.0" encoding="UTF-8"?>
<svg id="Capa_2" data-name="Capa 2" xmlns="http://www.w3.org/2000/svg" viewBox="0 0 308.5 453.52">
  <defs>
    <style>
      .cls-1 {
        fill: #00487f;
      }

      .cls-2 {
        fill: #00a2c0;
      }
    </style>
  </defs>
  <g id="Capa_1-2" data-name="Capa 1">
    <g>
      <g>
        <rect class="cls-2" x="-29.41" y="190.94" width="102.58" height="34.68" transform="translate(-187.52 211.35) rotate(-84.84)"/>
        <g>
          <rect class="cls-2" x="44.37" y="52.17" width="101.19" height="33.3" transform="translate(-22.05 76.83) rotate(-39.85)"/>
          <path class="cls-2" d="M123.23,22.65L44.47,88.36l22.22,26.64,78.76-65.73-22.22-26.62ZM45.44,88.46L123.13,23.63l21.34,25.56-77.69,64.83-21.34-25.56Z"/>
        </g>
        <g>
          <rect class="cls-2" x="228.6" y="-28.7" width="33.29" height="101.19" transform="translate(201.36 264.17) rotate(-84.83)"/>
          <path class="cls-2" d="M195.7,0l-3.11,34.56,102.18,9.21,3.11-34.54L195.7,0ZM294.13,43.02l-100.78-9.09,3-33.16,100.78,9.09-3,33.16Z"/>
        </g>
        <g>
          <rect class="cls-2" x="191.62" y="381.03" width="33.29" height="101.19" transform="translate(-240.28 600.4) rotate(-84.86)"/>
          <path class="cls-2" d="M158.75,409.75l-3.13,34.54,102.16,9.22,3.13-34.56-102.16-9.21ZM257.16,452.75l-100.78-9.09,2.98-33.16,100.78,9.09-2.98,33.16Z"/>
        </g>
        <g>
          <path class="cls-2" d="M49.27,308.05l-26.64,22.22,65.71,78.76,26.66-22.21-65.73-78.78ZM23.63,330.37l25.56-21.33,64.82,77.69-25.56,21.33-64.82-77.69Z"/>
          <rect class="cls-2" x="52.17" y="307.96" width="33.29" height="101.18" transform="translate(-213.72 127.32) rotate(-39.84)"/>
        </g>
      </g>
      <path class="cls-1" d="M54.34,226.76c0,95.06,77.35,172.4,172.4,172.4,26.35,0,51.63-5.78,75.13-17.19l6.63-3.21v37.54l-2.84,1.19c-15.77,6.57-32.36,11.13-49.34,13.56-.28.05-.57.1-.86.13-.26.03-.52.08-.8.1-9.12,1.25-18.53,1.91-27.93,1.91-21.93,0-43.54-3.45-64.2-10.23l-.86-.28c-.1-.05-.2-.07-.29-.1l-.24-.08c-20.74-6.97-40.2-17.21-57.83-30.4-.26-.16-.52-.37-.78-.57-.23-.18-.41-.31-.57-.44-24.73-18.82-45.25-43.37-59.31-71.01-.05-.08-.13-.24-.21-.41l-.07-.16c-.15-.26-.31-.57-.44-.85-9.79-19.58-16.36-40.57-19.49-62.31-.05-.28-.08-.57-.11-.86-.05-.26-.08-.52-.11-.78-1.25-9.11-1.89-18.54-1.89-27.94,0-21.95,3.44-43.55,10.22-64.21l.07-.18c.05-.15.1-.29.15-.42l.08-.24c.03-.1.07-.21.1-.31l.07-.23c6.99-20.77,17.24-40.28,30.49-57.94.1-.16.26-.36.42-.59.15-.18.28-.36.42-.54,18.88-24.85,43.46-45.38,71.11-59.44.2-.1.49-.24.77-.37l.1-.05c.18-.1.37-.2.55-.28,19.62-9.81,40.65-16.39,62.4-19.5.16-.03.49-.08.81-.13l.72-.1c9.11-1.24,18.54-1.87,27.94-1.87,21.95,0,43.55,3.44,64.21,10.22l.2.07c.13.05.28.08.41.13l.86.29c4.32,1.45,8.8,3.13,13.25,4.97l2.84,1.19v37.54l-6.63-3.21c-23.53-11.42-48.8-17.21-75.13-17.21-95.06,0-172.4,77.35-172.4,172.42Z"/>
      <g>
        <g>
          <path class="cls-2" d="M198.69,276.41c1.26,1.26,3.14,5.17,3.41,6.96.43,2.87-1.16,5.62-.26,7.6.48,1.04,15.12,15.66,16.13,16.19.64.33,1.02.55,1.64,0l20.71-20.66c1.12-1.95,1.29-6.63.35-8.7-1.4-3.1-17.26-15.43-16.86-17.66l20.17-20.37c-.38-9.21,3.7-17.44,14.05-16.51s14.02,13.57,7.36,20.58c-5.16,5.43-9.34,1.91-13.53,3.81-.8.36-12.2,11.62-12.35,12.49,1.23,1.94,6.64,8.3,8.24,9.01,1.44.64,4.87-.67,7.61-.25,13.1,1.98,13.3,22.68-.73,24.56-1.77.24-3.53-.87-4.87-.05l-30.55,30.63-25.56-25.64c-6.09-1.12-12.04-1.8-14.92-8.21-5.55-12.3,10.61-23.13,19.96-13.77ZM263.18,235.32c0-3.66-2.96-6.62-6.62-6.62s-6.62,2.96-6.62,6.62,2.96,6.62,6.62,6.62,6.62-2.96,6.62-6.62ZM259.71,281.08c0-3.62-2.94-6.56-6.56-6.56s-6.56,2.94-6.56,6.56,2.94,6.56,6.56,6.56,6.56-2.94,6.56-6.56ZM196.61,285.22c0-3.71-3.01-6.72-6.72-6.72s-6.72,3.01-6.72,6.72,3.01,6.72,6.72,6.72,6.72-3.01,6.72-6.72Z"/>
          <path class="cls-2" d="M202.89,175.49c3.42-.69,6.29.92,6.77,4.45l-.12,53.48-37.45,37.79c1.13,6.71-.34,13.14-7.22,15.84-12.24,4.8-22.38-9.33-14.18-19.13,4.86-5.81,10.03-2.69,14.04-4.96l33.24-33.67c1.39-14.83-1.28-31.48.18-46.08.32-3.25,1.01-6.97,4.73-7.71ZM166.7,275.9c0-3.62-2.93-6.55-6.55-6.55s-6.55,2.93-6.55,6.55,2.93,6.55,6.55,6.55,6.55-2.93,6.55-6.55Z"/>
          <path class="cls-2" d="M222.76,214.34c-.24-.41-2.81-1.42-4.12-3.72-9.43-16.58,16.72-26.62,21.84-11.1,2.7,8.19-1.77,10.92-5.96,16.73l-.45,21.03-25.15,26.04c2.07,1.4,5.59,6.64,7.43,7.46,2.29,1.02,5.7-1.1,10.67,1.68,13.26,7.42,2.48,29.05-12.1,21.19-8.51-4.59-4.19-10.01-6.46-15.02-1.31-2.89-15.59-13.85-15.21-16.01l29.25-29.46c.64-1.42.76-17.94.25-18.82ZM235.52,204.03c0-3.63-2.95-6.58-6.58-6.58s-6.58,2.95-6.58,6.58,2.95,6.58,6.58,6.58,6.58-2.95,6.58-6.58ZM227.31,282.93c0-3.64-2.95-6.58-6.58-6.58s-6.58,2.95-6.58,6.58,2.95,6.58,6.58,6.58,6.58-2.95,6.58-6.58Z"/>
          <path class="cls-2" d="M178.08,175.51c3.58-1.08,6.43,1.12,7.66,4.4l-.15,46.08c-.74,2.49-8.35,7.37-9.37,9.7-.69,1.59.59,3.67.3,5.94-2.48,19.46-33,9.35-22.86-7.91,4.41-7.5,10.2-3.87,14.73-5.92.68-.31,5.41-5.21,5.63-5.94l.22-41.09c.23-1.82,2.09-4.72,3.85-5.25ZM170.84,240.13c0-3.63-2.94-6.56-6.56-6.56s-6.56,2.94-6.56,6.56,2.94,6.56,6.56,6.56,6.56-2.94,6.56-6.56Z"/>
        </g>
        <path class="cls-1" d="M302.86,247.01c-5.59-23.43-70.24-131.98-87.1-156.31-1.72-2.48-4.47-7.36-8.11-6.57-3.07.65-8.96,10.88-11.06,14.18-22.76,35.6-53.76,86.25-72.07,123.67-18.82,38.5-20.56,75.6,7.55,110.5,65.85,81.74,195.22,16.77,170.78-85.47ZM146.79,331.56c-20.21-20.56-28.5-53.13-21.33-81.04,22.25-51.15,55.69-97.16,81.92-146.42l77.01,128.76c42.01,91.03-70.98,166.4-137.6,98.7Z"/>
      </g>
    </g>
  </g>
</svg>