<?xml version="1.0" encoding="UTF-8"?>
<svg id="Capa_2" data-name="Capa 2" xmlns="http://www.w3.org/2000/svg" viewBox="0 0 907.84 278.34">
  <defs>
    <style>
      .cls-1 {
        fill: #fff;
      }
    </style>
  </defs>
  <g id="Capa_1-2" data-name="Capa 1">
    <g>
      <g>
        <g>
          <rect class="cls-1" x="-18.05" y="117.19" width="62.95" height="21.29" transform="translate(-115.09 129.71) rotate(-84.84)"/>
          <g>
            <rect class="cls-1" x="27.23" y="32.02" width="62.1" height="20.44" transform="translate(-13.53 47.15) rotate(-39.85)"/>
            <path class="cls-1" d="M75.63,13.9L27.29,54.23l13.64,16.35,48.34-40.34-13.64-16.34ZM27.89,54.29L75.57,14.5l13.1,15.69-47.68,39.79-13.1-15.69Z"/>
          </g>
          <g>
            <rect class="cls-1" x="140.3" y="-17.62" width="20.43" height="62.1" transform="translate(123.58 162.13) rotate(-84.83)"/>
            <path class="cls-1" d="M120.11,0l-1.91,21.21,62.71,5.65,1.91-21.2L120.11,0ZM180.52,26.4l-61.85-5.58,1.84-20.35,61.85,5.58-1.84,20.35Z"/>
          </g>
          <g>
            <rect class="cls-1" x="117.6" y="233.85" width="20.43" height="62.1" transform="translate(-147.47 368.48) rotate(-84.86)"/>
            <path class="cls-1" d="M97.43,251.48l-1.92,21.2,62.7,5.66,1.92-21.21-62.7-5.65ZM157.83,277.87l-61.85-5.58,1.83-20.35,61.85,5.58-1.83,20.35Z"/>
          </g>
          <g>
            <path class="cls-1" d="M30.24,189.06l-16.35,13.64,40.33,48.34,16.36-13.63-40.34-48.35ZM14.5,202.76l15.69-13.09,39.78,47.68-15.69,13.09-39.78-47.68Z"/>
            <rect class="cls-1" x="32.02" y="189.01" width="20.43" height="62.1" transform="translate(-131.17 78.14) rotate(-39.84)"/>
          </g>
        </g>
        <path class="cls-1" d="M33.35,139.17c0,58.34,47.47,105.81,105.81,105.81,16.17,0,31.69-3.55,46.11-10.55l4.07-1.97v23.04l-1.74.73c-9.68,4.03-19.86,6.83-30.28,8.32-.17.03-.35.06-.53.08-.16.02-.32.05-.49.06-5.6.77-11.37,1.17-17.14,1.17-13.46,0-26.72-2.12-39.4-6.28l-.53-.17c-.06-.03-.12-.04-.18-.06l-.15-.05c-12.73-4.28-24.67-10.56-35.49-18.66-.16-.1-.32-.23-.48-.35-.14-.11-.25-.19-.35-.27-15.18-11.55-27.77-26.62-36.4-43.58-.03-.05-.08-.15-.13-.25l-.04-.1c-.09-.16-.19-.35-.27-.52-6.01-12.02-10.04-24.9-11.96-38.24-.03-.17-.05-.35-.07-.53-.03-.16-.05-.32-.07-.48-.77-5.59-1.16-11.38-1.16-17.15,0-13.47,2.11-26.73,6.27-39.41l.04-.11c.03-.09.06-.18.09-.26l.05-.15c.02-.06.04-.13.06-.19l.04-.14c4.29-12.75,10.58-24.72,18.71-35.56.06-.1.16-.22.26-.36.09-.11.17-.22.26-.33,11.59-15.25,26.67-27.85,43.64-36.48.12-.06.3-.15.47-.23l.06-.03c.11-.06.23-.12.34-.17,12.04-6.02,24.95-10.06,38.3-11.97.1-.02.3-.05.5-.08l.44-.06c5.59-.76,11.38-1.15,17.15-1.15,13.47,0,26.73,2.11,39.41,6.27l.12.04c.08.03.17.05.25.08l.53.18c2.65.89,5.4,1.92,8.13,3.05l1.74.73v23.04l-4.07-1.97c-14.44-7.01-29.95-10.56-46.11-10.56-58.34,0-105.81,47.47-105.81,105.82Z"/>
        <g>
          <g>
            <path class="cls-1" d="M121.95,169.64c.78.78,1.93,3.17,2.09,4.27.26,1.76-.71,3.45-.16,4.67.29.64,9.28,9.61,9.9,9.93.39.2.62.34,1.01,0l12.71-12.68c.69-1.2.79-4.07.22-5.34-.86-1.9-10.59-9.47-10.35-10.84l12.38-12.5c-.23-5.66,2.27-10.71,8.63-10.13,6.21.56,8.61,8.33,4.52,12.63-3.17,3.33-5.73,1.17-8.31,2.34-.49.22-7.49,7.13-7.58,7.67.76,1.19,4.08,5.09,5.05,5.53.88.39,2.99-.41,4.67-.16,8.04,1.22,8.16,13.92-.45,15.08-1.09.15-2.17-.54-2.99-.03l-18.75,18.8-15.69-15.74c-3.74-.68-7.39-1.1-9.16-5.04-3.4-7.55,6.51-14.19,12.25-8.45ZM161.52,144.43c0-2.24-1.82-4.06-4.06-4.06s-4.06,1.82-4.06,4.06,1.82,4.06,4.06,4.06,4.06-1.82,4.06-4.06ZM159.39,172.51c0-2.22-1.8-4.03-4.03-4.03s-4.03,1.8-4.03,4.03,1.8,4.03,4.03,4.03,4.03-1.8,4.03-4.03ZM120.67,175.05c0-2.28-1.85-4.13-4.13-4.13s-4.13,1.85-4.13,4.13,1.85,4.13,4.13,4.13,4.13-1.85,4.13-4.13Z"/>
            <path class="cls-1" d="M124.52,107.7c2.1-.42,3.86.57,4.16,2.73l-.07,32.82-22.99,23.19c.69,4.12-.21,8.06-4.43,9.72-7.51,2.95-13.74-5.73-8.7-11.74,2.99-3.56,6.16-1.65,8.62-3.05l20.4-20.67c.85-9.1-.79-19.32.11-28.28.2-1.99.62-4.27,2.9-4.73ZM102.31,169.33c0-2.22-1.8-4.02-4.02-4.02s-4.02,1.8-4.02,4.02,1.8,4.02,4.02,4.02,4.02-1.8,4.02-4.02Z"/>
            <path class="cls-1" d="M136.71,131.55c-.15-.25-1.73-.87-2.53-2.28-5.79-10.18,10.26-16.34,13.4-6.81,1.66,5.03-1.09,6.7-3.65,10.27l-.27,12.91-15.43,15.98c1.27.86,3.43,4.08,4.56,4.58,1.4.63,3.5-.68,6.55,1.03,8.14,4.55,1.52,17.83-7.43,13-5.22-2.82-2.57-6.14-3.96-9.22-.8-1.77-9.57-8.5-9.33-9.83l17.95-18.08c.39-.87.47-11.01.15-11.55ZM144.55,125.22c0-2.23-1.81-4.04-4.04-4.04s-4.04,1.81-4.04,4.04,1.81,4.04,4.04,4.04,4.04-1.81,4.04-4.04ZM139.51,173.64c0-2.23-1.81-4.04-4.04-4.04s-4.04,1.81-4.04,4.04,1.81,4.04,4.04,4.04,4.04-1.81,4.04-4.04Z"/>
            <path class="cls-1" d="M109.3,107.72c2.2-.66,3.95.69,4.7,2.7l-.09,28.28c-.45,1.53-5.12,4.53-5.75,5.96-.43.98.36,2.25.18,3.65-1.52,11.94-20.25,5.74-14.03-4.86,2.71-4.6,6.26-2.38,9.04-3.64.42-.19,3.32-3.2,3.45-3.64l.13-25.22c.14-1.12,1.28-2.9,2.36-3.22ZM104.85,147.38c0-2.22-1.8-4.03-4.03-4.03s-4.03,1.8-4.03,4.03,1.8,4.03,4.03,4.03,4.03-1.8,4.03-4.03Z"/>
          </g>
          <path class="cls-1" d="M185.88,151.6c-3.43-14.38-43.11-81-53.46-95.93-1.06-1.52-2.74-4.51-4.98-4.03-1.88.4-5.5,6.67-6.79,8.71-13.97,21.85-33,52.94-44.23,75.9-11.55,23.63-12.62,46.4,4.64,67.82,40.41,50.16,119.82,10.29,104.82-52.45ZM90.09,203.49c-12.4-12.62-17.49-32.61-13.09-49.74,13.66-31.39,34.18-59.63,50.28-89.86l47.26,79.02c25.78,55.87-43.56,102.13-84.45,60.58Z"/>
        </g>
      </g>
      <g>
        <path class="cls-1" d="M269.74,94.26c0,15.13-10.23,28.05-28.18,28.05s-28.02-12.38-28.02-28.08c0-14.85,11.05-27.7,28.24-27.7s27.96,12.88,27.96,27.73ZM221.56,94.03c0,11.51,7.02,21.94,20.27,21.94s19.9-9.94,19.9-21.56-6.98-21.53-20.38-21.53c-12.48,0-19.8,9.85-19.8,21.16Z"/>
        <path class="cls-1" d="M280.6,64.54h7.17v24.4c1.91-2.95,5.99-6.94,14.14-6.94,10.65,0,18.34,8.34,18.34,19.45,0,12.77-7.94,20.78-18.79,20.78-8.18,0-11.9-3.53-13.87-6.96-.05,1.85-.08,4.57-.2,5.91h-6.87c.08-4.83.08-8.77.08-13.11v-43.53ZM312.86,101.7c0-6.5-3.68-13.68-12.52-13.68s-12.88,6.09-12.88,14.03c0,8.67,4.99,14.11,12.88,14.11,8.92,0,12.52-6.95,12.52-14.47Z"/>
        <path class="cls-1" d="M333.84,109.64c1.36,4.51,5.24,7.14,12.13,7.14,7.33,0,9.92-2.56,9.92-5.96,0-3.19-1.91-5.35-11.6-6.5-13.4-1.67-15.92-6.35-15.92-11.1s3.93-11.22,16.13-11.22c13.2,0,16.91,6.81,17.31,11.38h-7.2c-.58-2.3-2.14-6.02-10.52-6.02-7.06,0-8.56,3.04-8.56,5.22,0,2.84,1.79,4.54,10.52,5.7,14.33,1.92,17,6.35,17,12,0,6.85-5.22,11.96-17.53,11.96-11.11,0-17.6-4.7-18.9-12.6h7.22Z"/>
        <path class="cls-1" d="M376.5,103.78c.4,7.32,5.33,12.68,13.06,12.68,5.96,0,9.25-2.43,11.29-6.13h7.17c-2.05,5.67-7.44,11.9-18.84,11.9-13.66,0-19.87-9.98-19.87-20,0-11.51,7.67-20.23,19.69-20.23,14.47,0,19.57,10.6,19.57,19.9,0,.65,0,1.14-.02,1.88h-32.05ZM401.11,98.69c-.33-4.53-2.73-11.11-12.15-11.11-7.81,0-11.64,4.88-12.3,11.11h24.45Z"/>
        <path class="cls-1" d="M417.96,93.42c0-3.44,0-6.93-.08-10.37h6.97c.12,1.12.27,5.14.27,8.58,2.47-5.84,7.98-9.68,15.43-9.61v6.86c-8.76-.1-15.43,5.16-15.43,16.39v15.91h-7.17v-27.76Z"/>
        <path class="cls-1" d="M453.54,83.06c3.47,8.77,11.77,27.41,13.18,31.51h.1c1.05-3.25,3.6-9.68,12.95-31.51h7.34l-16.69,38.12h-7.83l-16.84-38.12h7.79Z"/>
        <path class="cls-1" d="M526.58,111.75c0,3.71.23,8.55.35,9.43h-6.82c-.3-1.39-.43-4.32-.45-5.58-2.01,3.96-6.32,6.63-14.4,6.63-10.78,0-14.74-6.53-14.74-12.24,0-9.76,8.86-12.47,19.75-12.47h9.29v-2.03c0-4.17-1.79-8.06-9.91-8.06-7.3,0-9.02,3.22-9.78,6.71h-7.17c.46-5.05,3.84-12.14,16.93-12.14,13.87,0,16.95,6.78,16.95,13.08v16.67ZM519.56,102.61c-1.19-.02-3.75-.02-9.12-.02-8.75,0-12.85,1.94-12.85,7.03,0,3.8,2.8,6.99,9.12,6.99,10.12,0,12.84-5.92,12.84-12.34v-1.66Z"/>
        <path class="cls-1" d="M532.83,83.06h7.57v-12.27h7.19v12.27h9.94v5.65h-9.94v20.87c0,4.37,1.11,6.31,5.27,6.31,1.11,0,2.65-.05,3.75-.33v5.28c-1.72.6-3.71.7-5.91.7-7.9,0-10.3-3.53-10.3-11.03v-21.79h-7.57v-5.65Z"/>
        <path class="cls-1" d="M602.8,102.11c0,10.59-6.85,20.13-20.54,20.13-12.9,0-20.1-9.54-20.1-20.08s7.63-20.16,20.47-20.16,20.17,10.03,20.17,20.1ZM569.51,102.16c0,7.23,4.62,14.2,13,14.2s12.91-6.51,12.91-14.13-4.61-14.35-13.08-14.35-12.83,6.64-12.83,14.28Z"/>
        <path class="cls-1" d="M612.18,93.42c0-3.44,0-6.93-.08-10.37h6.97c.12,1.12.27,5.14.27,8.58,2.47-5.84,7.98-9.68,15.43-9.61v6.86c-8.76-.1-15.43,5.16-15.43,16.39v15.91h-7.17v-27.76Z"/>
        <path class="cls-1" d="M642.16,64.54h7.17v8.61h-7.17v-8.61ZM642.16,83.06h7.17v38.12h-7.17v-38.12Z"/>
        <path class="cls-1" d="M699.31,102.11c0,10.59-6.85,20.13-20.54,20.13-12.9,0-20.1-9.54-20.1-20.08s7.63-20.16,20.47-20.16,20.17,10.03,20.17,20.1ZM666.01,102.16c0,7.23,4.62,14.2,13,14.2s12.91-6.51,12.91-14.13-4.61-14.35-13.08-14.35-12.83,6.64-12.83,14.28Z"/>
        <path class="cls-1" d="M215.53,159.65h11.23v20.26h20.9v-20.26h11.23v51.94h-11.23v-22.48h-20.9v22.48h-11.23v-51.94Z"/>
        <path class="cls-1" d="M269.04,156.6h10.8v9.63h-10.8v-9.63ZM269.04,172.59h10.8v38.99h-10.8v-38.99Z"/>
        <path class="cls-1" d="M325.3,156.6v44.27c0,3.55,0,7.15.08,10.71h-10.38c-.22-1.17-.42-3.18-.49-4.07-1.88,3.07-5.24,4.98-11.06,4.98-9.86,0-16.13-7.92-16.13-20.08s6.67-20.72,17.71-20.72c5.61,0,8.62,1.98,9.49,3.73v-18.82h10.8ZM298.4,192.13c0,7.6,2.96,11.72,8.25,11.72,7.42,0,8.28-6.19,8.28-11.79,0-6.67-.94-11.71-8-11.71-5.67,0-8.53,4.43-8.53,11.79Z"/>
        <path class="cls-1" d="M334.88,183.17c0-3.87,0-7.32-.08-10.58h10.59c.14.87.28,4.74.28,6.85,1.72-4.46,5.88-7.71,12.51-7.75v10.3c-7.83-.2-12.51,1.91-12.51,12.59v17h-10.8v-28.42Z"/>
        <path class="cls-1" d="M400.16,192.01c0,11.8-7.06,20.48-19.41,20.48s-19.15-8.63-19.15-20.27,7.28-20.53,19.66-20.53c11.48,0,18.9,8.1,18.9,20.32ZM372.56,192.09c0,7.51,3.23,11.95,8.43,11.95s8.22-4.45,8.22-11.89c0-8.16-2.99-12.02-8.37-12.02-5.01,0-8.28,3.71-8.28,11.95Z"/>
        <path class="cls-1" d="M407.58,182.64c0-3.37,0-6.71-.08-10.05h10.32c.14.95.36,3.13.42,4.65,1.98-2.9,5.11-5.55,10.84-5.55s8.69,2.9,10.06,5.93c2.28-3.19,5.65-5.93,12.01-5.93,6.8,0,12.36,4.18,12.36,14.32v25.58h-10.53v-24.27c0-3.52-1.28-6.97-5.7-6.97s-6.38,2.96-6.38,8.94v22.29h-10.59v-23.86c0-4.04-.99-7.31-5.6-7.31s-6.47,2.7-6.47,9.39v21.78h-10.66v-28.94Z"/>
        <path class="cls-1" d="M481.78,194.4c0,4.88,2.45,9.64,7.83,9.64,4.5,0,5.78-1.8,6.8-4.16h10.81c-1.38,4.77-5.64,12.61-17.89,12.61s-18.42-9.6-18.42-19.83c0-12.23,6.28-20.97,18.8-20.97,13.39,0,17.95,9.69,17.95,19.42,0,1.32,0,2.18-.14,3.29h-25.73ZM496.84,187.77c-.08-4.54-1.89-8.36-7.15-8.36s-7.25,3.57-7.69,8.36h14.83Z"/>
        <path class="cls-1" d="M511.29,172.59h6.01v-10.56h10.8v10.56h7.64v8.12h-7.64v19.24c0,2.96.9,4.11,4.12,4.11.6,0,1.65,0,2.46-.12v7.43c-2.14.73-5.08.74-7.26.74-7.61,0-10.12-4.07-10.12-10.89v-20.51h-6.01v-8.12Z"/>
        <path class="cls-1" d="M550.26,194.4c0,4.88,2.45,9.64,7.83,9.64,4.5,0,5.78-1.8,6.8-4.16h10.81c-1.38,4.77-5.64,12.61-17.89,12.61s-18.42-9.6-18.42-19.83c0-12.23,6.28-20.97,18.8-20.97,13.39,0,17.95,9.69,17.95,19.42,0,1.32,0,2.18-.14,3.29h-25.73ZM565.32,187.77c-.08-4.54-1.89-8.36-7.15-8.36s-7.25,3.57-7.69,8.36h14.83Z"/>
        <path class="cls-1" d="M620.44,192.01c0,11.8-7.06,20.48-19.41,20.48s-19.15-8.63-19.15-20.27,7.28-20.53,19.66-20.53c11.48,0,18.9,8.1,18.9,20.32ZM592.84,192.09c0,7.51,3.23,11.95,8.43,11.95s8.22-4.45,8.22-11.89c0-8.16-3-12.02-8.37-12.02-5.01,0-8.28,3.71-8.28,11.95Z"/>
        <path class="cls-1" d="M627.86,183.17c0-3.87,0-7.32-.08-10.58h10.59c.14.87.28,4.74.28,6.85,1.72-4.46,5.88-7.71,12.51-7.75v10.3c-7.83-.2-12.51,1.91-12.51,12.59v17h-10.8v-28.42Z"/>
        <path class="cls-1" d="M693.14,192.01c0,11.8-7.06,20.48-19.41,20.48s-19.15-8.63-19.15-20.27,7.28-20.53,19.66-20.53c11.48,0,18.9,8.1,18.9,20.32ZM665.53,192.09c0,7.51,3.23,11.95,8.43,11.95s8.22-4.45,8.22-11.89c0-8.16-2.99-12.02-8.37-12.02-5.01,0-8.28,3.71-8.28,11.95Z"/>
        <path class="cls-1" d="M700.56,211.59v-54.99h10.8v54.99h-10.8Z"/>
        <path class="cls-1" d="M757.33,192.01c0,11.8-7.06,20.48-19.41,20.48s-19.15-8.63-19.15-20.27,7.28-20.53,19.66-20.53c11.48,0,18.9,8.1,18.9,20.32ZM729.72,192.09c0,7.51,3.23,11.95,8.43,11.95s8.22-4.45,8.22-11.89c0-8.16-2.99-12.02-8.37-12.02-5.01,0-8.28,3.71-8.28,11.95ZM753.78,155.84l-12.02,11.16h-9.44l8.66-11.16h12.8Z"/>
        <path class="cls-1" d="M800.52,206.84c0,12.52-4.62,20.44-19.39,20.44s-17.04-7.95-17.42-12.35h11c.76,2.68,2.73,4.5,6.9,4.5,7.01,0,8.33-4.27,8.33-11.92v-1.86c-2.03,3.37-5.26,5.48-10.99,5.48-10.27,0-16.12-8.42-16.12-18.9,0-12.19,7.3-20.53,17.05-20.53,6.69,0,9.47,3.15,10.06,4.97.08-1.06.35-3.43.42-4.07h10.24c-.07,3.48-.08,7.44-.08,11.19v23.05ZM773.91,191.74c0,6.71,3.35,10.67,8.13,10.67,6.5,0,8.23-4.46,8.23-11.01s-1.16-11.07-8.01-11.07c-4.68,0-8.36,3.61-8.36,11.4Z"/>
        <path class="cls-1" d="M810.09,156.6h10.8v9.63h-10.8v-9.63ZM810.09,172.59h10.8v38.99h-10.8v-38.99Z"/>
        <path class="cls-1" d="M864.34,198.99c-1.34,6.5-5.91,13.5-17.53,13.5s-18.38-8.4-18.38-20.12,7.02-20.68,18.89-20.68c13.15,0,16.8,9.43,17.01,13.84h-10.54c-.67-3.18-2.47-5.4-6.68-5.4-4.94,0-7.73,4.33-7.73,11.89,0,8.3,2.96,12.08,7.68,12.08,3.71,0,5.7-2.19,6.66-5.12h10.61Z"/>
        <path class="cls-1" d="M907.84,192.01c0,11.8-7.06,20.48-19.41,20.48s-19.15-8.63-19.15-20.27,7.28-20.53,19.66-20.53c11.48,0,18.9,8.1,18.9,20.32ZM880.24,192.09c0,7.51,3.23,11.95,8.43,11.95s8.22-4.45,8.22-11.89c0-8.16-3-12.02-8.37-12.02-5.01,0-8.28,3.71-8.28,11.95Z"/>
      </g>
    </g>
  </g>
</svg>